<svg xmlns="http://www.w3.org/2000/svg" width="84.523" height="35.984" viewBox="0 0 84.523 35.984">
  <g id="Group_1001" data-name="Group 1001" transform="translate(-230 -11)">
    <path id="Path_1" data-name="Path 1" d="M170.23.2c.1,6.249.056,12.46.056,18.868,0,1.237.157,2.464.113,3.65-.275,7.329-3.007,11.817-9.6,13.028a23.912,23.912,0,0,1-11.624-.955c-.4-.154-1.061-.369-1.179-.674-.132-.34.148-.925.281-1.4a37.806,37.806,0,0,1,1.179-4.043c.638-.108,1.214.307,1.8.505a16.008,16.008,0,0,0,6.065,1.011c3.794-.23,5.477-2.689,5.5-6.795-.239.01-.422.256-.562.393a7.762,7.762,0,0,1-5,2.414,7.337,7.337,0,0,1-6.907-3.706c-1.424-2.467-1.867-5.878-1.628-9.434.353-5.268,2.093-9.027,5.9-10.894C157.856.574,162.042.592,166.8.366c1.215-.058,2.308-.23,3.425-.169m-11.287,6.57C157.26,8.2,156.5,12.7,156.753,16.2a8.136,8.136,0,0,0,.842,3.145,2.8,2.8,0,0,0,2.92,1.572,3.425,3.425,0,0,0,2.19-1.628,8.392,8.392,0,0,0,0-1.628V6.037a4.616,4.616,0,0,0-3.762.73" transform="translate(116.659 10.859)" fill="#ff0600" fill-rule="evenodd"/>
    <path id="Path_2" data-name="Path 2" d="M310.442,0c.242,0,.207.28.449.281-.074,3.614-.111,7.264-.169,10.894,1.259.041,2.526-.2,3.706-.056a1.936,1.936,0,0,1,.112,1.179c-.037.836-.074,1.792-.112,2.7-.017.394-.012.847-.281,1.067-1.063.106-2.322-.073-3.482-.056.1,2.273,0,4.814,0,7.581,0,2.2-.183,4.657.449,5.952a2.2,2.2,0,0,0,1.965,1.123c.558,0,1.028-.3,1.629-.281a13.29,13.29,0,0,1,0,2.527c-.036.706.048,1.986-.281,2.358-.369.417-2.2.448-2.92.505-3.383.27-6.325-.5-7.525-2.471-1.087-1.784-.842-5.466-.842-8.2V16.116c-.64-.259-1.851.054-2.471-.225a8.044,8.044,0,0,1,0-2.358,9.877,9.877,0,0,1,.169-2.358,7.928,7.928,0,0,1,2.3-.168c.037-2.939-.074-6.027.056-8.872a5.129,5.129,0,0,1,1.684-.618c1.17-.321,2.4-.632,3.594-.955A18.214,18.214,0,0,0,310.442,0" transform="translate(-0.249 11)" fill="#ff0600" fill-rule="evenodd"/>
    <path id="Path_3" data-name="Path 3" d="M21.345.48c.45.078.278.637.281.9.026,2.476-.154,5.062-.168,7.693-.016,2.931-.113,5.917-.113,8.872,0,4.479.024,8.97.113,13.421.015.753-.03,1.508,0,2.246a5.378,5.378,0,0,1-.056,2.078,5.263,5.263,0,0,1-1.8.112c-1.253,0-2.517.056-3.762.056a5.262,5.262,0,0,1-1.8-.113,9.377,9.377,0,0,1-.169-2.19c-.185-.038-.24.184-.337.281a9.608,9.608,0,0,1-2.92,2.022,7.53,7.53,0,0,1-7.468-1.235A11.222,11.222,0,0,1,.175,28,22.332,22.332,0,0,1,.062,23.5a22.445,22.445,0,0,1,.562-4.212,14.137,14.137,0,0,1,1.685-3.65c2.119-3.23,5.925-4.617,11.511-4.38.188-3.052-.136-6.378-.056-9.321.475-.4,1.178-.338,1.8-.449s1.231-.228,1.853-.337C18.753.92,20.239.578,21.345.48M10.058,17.158C8.563,18.38,8.094,20.985,7.98,23.84c-.092,2.3.055,4.417.842,5.728a2.8,2.8,0,0,0,2.751,1.572,3.282,3.282,0,0,0,2.19-1.572,8.336,8.336,0,0,0,0-1.628c0-3.946.076-7.724.056-11.511a4.7,4.7,0,0,0-3.762.73" transform="translate(229.999 10.632)" fill="#ff0600" fill-rule="evenodd"/>
    <path id="Path_4" data-name="Path 4" d="M112.212,2.64c.34.285.225.837.225,1.292,0,1.44-.091,3.01-.056,4.436-.374.442-1.081.425-1.684.506-1.24.165-2.533.322-3.875.505a3.911,3.911,0,0,1-1.8.112,3.288,3.288,0,0,1-.112-1.4c0-1.358-.11-2.928-.056-4.436a3.1,3.1,0,0,1,1.629-.337c1.9-.163,3.844-.489,5.727-.674" transform="translate(149.689 8.978)" fill="#ff0600" fill-rule="evenodd"/>
    <path id="Path_5" data-name="Path 5" d="M263.673,2.64c.328.295.225.837.225,1.292,0,1.433-.1,3.011-.056,4.436-.371.441-1.086.425-1.685.506-1.24.167-2.534.319-3.875.505a3.9,3.9,0,0,1-1.8.112,5.419,5.419,0,0,1-.112-1.8c-.058-1.371-.078-2.848-.056-4.043a3.033,3.033,0,0,1,1.628-.337c1.894-.167,3.848-.488,5.728-.674" transform="translate(33.66 8.978)" fill="#ff0600" fill-rule="evenodd"/>
    <path id="Path_6" data-name="Path 6" d="M112.126,69.415a6.282,6.282,0,0,1-1.965.112c-2,0-4.213.069-6.065.056a3.542,3.542,0,0,1-.113-1.46c0-6.953.09-13.965-.224-20.889-.037-.82-.241-1.346.449-1.516.378-.093,1-.1,1.46-.168,1.777-.279,4.03-.68,5.559-1.011.233-.05.628-.086.73.281a7.087,7.087,0,0,1-.112.73c-.241,3.612-.056,7.674-.056,11.287,0,3.855.092,7.428.337,11.175.03.459.217.971,0,1.4" transform="translate(150.561 -23.094)" fill="#ff0600" fill-rule="evenodd"/>
    <path id="Path_7" data-name="Path 7" d="M263.562,69.423a6.283,6.283,0,0,1-1.965.112c-2,0-4.213.072-6.064.056a2.717,2.717,0,0,1-.113-1.348c0-6.42.132-13.189-.168-19.542a9.486,9.486,0,0,1,0-2.808c1.206-.323,2.483-.475,3.706-.674,1.263-.2,2.5-.413,3.706-.674.251-.054.636-.063.73.281a6.229,6.229,0,0,1-.112.73c-.284,3.541-.056,7.771-.056,11.287,0,3.911.082,7.539.337,11.175a2.963,2.963,0,0,1,0,1.4" transform="translate(34.558 -23.103)" fill="#ff0600" fill-rule="evenodd"/>
  </g>
</svg>
